<?xml version="1.0" encoding="utf-8" ?>
<svg baseProfile="full" height="300px" version="1.1" width="500px" xmlns="http://www.w3.org/2000/svg" xmlns:ev="http://www.w3.org/2001/xml-events" xmlns:xlink="http://www.w3.org/1999/xlink"><defs /><text font-family="Arial" font-size="14px" font-weight="bold" text-anchor="middle" x="250.0" y="25">AXE DE PIVOT (x8)</text><text fill="gray" font-family="Arial" font-size="10px" text-anchor="middle" x="250.0" y="42">Inox 304, D16mm, L=80mm</text><rect fill="#e8e8e8" height="48.0" stroke="black" stroke-width="1.5" width="240.0" x="100" y="126.0" /><rect fill="white" height="52.0" stroke="black" stroke-width="0.8" width="6.0" x="331.0" y="124.0" /><text fill="#555" font-family="Arial" font-size="7px" text-anchor="middle" x="334.0" y="189.0">gorge
circlip E16</text><circle cx="115.0" cy="150" fill="white" r="4.5" stroke="black" stroke-width="0.8" /><text fill="#555" font-family="Arial" font-size="7px" text-anchor="middle" x="115.0" y="116.0">trou D3
goupille</text><line stroke="#333" stroke-width="0.5" x1="100" x2="340.0" y1="204.0" y2="204.0" /><line stroke="#333" stroke-width="0.3" x1="100" x2="100" y1="194.0" y2="209.0" /><line stroke="#333" stroke-width="0.3" x1="340.0" x2="340.0" y1="194.0" y2="209.0" /><line stroke="#333" stroke-width="0.5" x1="100" x2="103" y1="204.0" y2="202.0" /><line stroke="#333" stroke-width="0.5" x1="100" x2="103" y1="204.0" y2="206.0" /><line stroke="#333" stroke-width="0.5" x1="340.0" x2="337.0" y1="204.0" y2="202.0" /><line stroke="#333" stroke-width="0.5" x1="340.0" x2="337.0" y1="204.0" y2="206.0" /><text fill="#333" font-family="Arial" font-size="9px" text-anchor="middle" x="220.0" y="201.0">80mm</text><line stroke="#333" stroke-width="0.5" x1="80" x2="80" y1="126.0" y2="174.0" /><line stroke="#333" stroke-width="0.3" x1="75" x2="70" y1="126.0" y2="126.0" /><line stroke="#333" stroke-width="0.3" x1="75" x2="70" y1="174.0" y2="174.0" /><line stroke="#333" stroke-width="0.5" x1="80" x2="78" y1="126.0" y2="129.0" /><line stroke="#333" stroke-width="0.5" x1="80" x2="82" y1="126.0" y2="129.0" /><line stroke="#333" stroke-width="0.5" x1="80" x2="78" y1="174.0" y2="171.0" /><line stroke="#333" stroke-width="0.5" x1="80" x2="82" y1="174.0" y2="171.0" /><text fill="#333" font-family="Arial" font-size="9px" x="72" y="153.0">D16mm</text><line stroke="#333" stroke-width="0.5" x1="334.0" x2="340.0" y1="106.0" y2="106.0" /><line stroke="#333" stroke-width="0.3" x1="334.0" x2="334.0" y1="98.0" y2="111.0" /><line stroke="#333" stroke-width="0.3" x1="340.0" x2="340.0" y1="98.0" y2="111.0" /><line stroke="#333" stroke-width="0.5" x1="334.0" x2="337.0" y1="106.0" y2="104.0" /><line stroke="#333" stroke-width="0.5" x1="334.0" x2="337.0" y1="106.0" y2="108.0" /><line stroke="#333" stroke-width="0.5" x1="340.0" x2="337.0" y1="106.0" y2="104.0" /><line stroke="#333" stroke-width="0.5" x1="340.0" x2="337.0" y1="106.0" y2="108.0" /><text fill="#333" font-family="Arial" font-size="9px" text-anchor="middle" x="337.0" y="103.0">2mm</text><line stroke="#333" stroke-width="0.5" x1="100" x2="115.0" y1="91.0" y2="91.0" /><line stroke="#333" stroke-width="0.3" x1="100" x2="100" y1="83.0" y2="96.0" /><line stroke="#333" stroke-width="0.3" x1="115.0" x2="115.0" y1="83.0" y2="96.0" /><line stroke="#333" stroke-width="0.5" x1="100" x2="103" y1="91.0" y2="89.0" /><line stroke="#333" stroke-width="0.5" x1="100" x2="103" y1="91.0" y2="93.0" /><line stroke="#333" stroke-width="0.5" x1="115.0" x2="112.0" y1="91.0" y2="89.0" /><line stroke="#333" stroke-width="0.5" x1="115.0" x2="112.0" y1="91.0" y2="93.0" /><text fill="#333" font-family="Arial" font-size="9px" text-anchor="middle" x="107.5" y="88.0">5mm</text><text fill="#555" font-family="Arial" font-size="9px" text-anchor="middle" x="250.0" y="260">Retention: goupille fendue 3x25mm (haut) + circlip E16 DIN 6799 (bas)</text><text fill="#555" font-family="Arial" font-size="9px" text-anchor="middle" x="250.0" y="275">Rondelles friction: bronze ou nylon D16.5/25 ep.2mm entre chaque piece</text></svg>