<?xml version="1.0" encoding="utf-8" ?>
<svg baseProfile="full" height="500px" version="1.1" width="900px" xmlns="http://www.w3.org/2000/svg" xmlns:ev="http://www.w3.org/2001/xml-events" xmlns:xlink="http://www.w3.org/1999/xlink"><defs /><text font-family="Arial" font-size="14px" font-weight="bold" text-anchor="middle" x="450.0" y="25">BRAS ARTICULES (x4: 2 longs + 2 courts)</text><text fill="gray" font-family="Arial" font-size="10px" text-anchor="middle" x="450.0" y="42">Tube rectangulaire 40x25x3mm acier S235</text><text fill="gray" font-family="Arial" font-size="10px" text-anchor="middle" x="450.0" y="100">Bras 1 (A -&gt; a): entraxe = 652mm | Tube 40x25x3</text><rect fill="#e0e0e0" height="20.0" stroke="#c62828" stroke-width="1.5" width="521.6" x="100" y="150.0" /><text fill="#888" font-family="Arial" font-size="7px" text-anchor="middle" x="360.8" y="163">Tube 40x25x3</text><circle cx="100" cy="160" fill="white" r="7.2" stroke="#c62828" stroke-width="2" /><text fill="#c62828" font-family="Arial" font-size="8px" font-weight="bold" text-anchor="middle" x="100" y="138.0">Pivot A</text><text fill="#c62828" font-family="Arial" font-size="7px" text-anchor="middle" x="100" y="147.0">D18</text><circle cx="621.6" cy="160" fill="white" r="7.2" stroke="#c62828" stroke-width="2" /><text fill="#c62828" font-family="Arial" font-size="8px" font-weight="bold" text-anchor="middle" x="621.6" y="138.0">Pivot a</text><text fill="#c62828" font-family="Arial" font-size="7px" text-anchor="middle" x="621.6" y="147.0">D18</text><line stroke="#333" stroke-width="0.5" x1="100" x2="621.6" y1="190.0" y2="190.0" /><line stroke="#333" stroke-width="0.3" x1="100" x2="100" y1="180.0" y2="195.0" /><line stroke="#333" stroke-width="0.3" x1="621.6" x2="621.6" y1="180.0" y2="195.0" /><line stroke="#333" stroke-width="0.5" x1="100" x2="103" y1="190.0" y2="188.0" /><line stroke="#333" stroke-width="0.5" x1="100" x2="103" y1="190.0" y2="192.0" /><line stroke="#333" stroke-width="0.5" x1="621.6" x2="618.6" y1="190.0" y2="188.0" /><line stroke="#333" stroke-width="0.5" x1="621.6" x2="618.6" y1="190.0" y2="192.0" /><text fill="#333" font-family="Arial" font-size="9px" text-anchor="middle" x="360.8" y="187.0">entraxe 652mm</text><rect fill="#e0e0e0" height="20.0" stroke="#c62828" stroke-width="1" width="32.0" x="685.6" y="150.0" /><rect fill="white" height="15.2" stroke="#c62828" stroke-width="0.5" width="27.2" x="688.0" y="152.4" /><circle cx="701.6" cy="160" fill="white" r="7.2" stroke="#c62828" stroke-width="1" /><text fill="#888" font-family="Arial" font-size="7px" text-anchor="middle" x="701.6" y="185.0">section</text><text fill="gray" font-family="Arial" font-size="10px" text-anchor="middle" x="450.0" y="300">Bras 2 (B -&gt; b): entraxe = 496mm | Tube 40x25x3</text><rect fill="#e0e0e0" height="20.0" stroke="#1565c0" stroke-width="1.5" width="396.8" x="100" y="350.0" /><text fill="#888" font-family="Arial" font-size="7px" text-anchor="middle" x="298.4" y="363">Tube 40x25x3</text><circle cx="100" cy="360" fill="white" r="7.2" stroke="#1565c0" stroke-width="2" /><text fill="#1565c0" font-family="Arial" font-size="8px" font-weight="bold" text-anchor="middle" x="100" y="338.0">Pivot B</text><text fill="#1565c0" font-family="Arial" font-size="7px" text-anchor="middle" x="100" y="347.0">D18</text><circle cx="496.8" cy="360" fill="white" r="7.2" stroke="#1565c0" stroke-width="2" /><text fill="#1565c0" font-family="Arial" font-size="8px" font-weight="bold" text-anchor="middle" x="496.8" y="338.0">Pivot b</text><text fill="#1565c0" font-family="Arial" font-size="7px" text-anchor="middle" x="496.8" y="347.0">D18</text><line stroke="#333" stroke-width="0.5" x1="100" x2="496.8" y1="390.0" y2="390.0" /><line stroke="#333" stroke-width="0.3" x1="100" x2="100" y1="380.0" y2="395.0" /><line stroke="#333" stroke-width="0.3" x1="496.8" x2="496.8" y1="380.0" y2="395.0" /><line stroke="#333" stroke-width="0.5" x1="100" x2="103" y1="390.0" y2="388.0" /><line stroke="#333" stroke-width="0.5" x1="100" x2="103" y1="390.0" y2="392.0" /><line stroke="#333" stroke-width="0.5" x1="496.8" x2="493.8" y1="390.0" y2="388.0" /><line stroke="#333" stroke-width="0.5" x1="496.8" x2="493.8" y1="390.0" y2="392.0" /><text fill="#333" font-family="Arial" font-size="9px" text-anchor="middle" x="298.4" y="387.0">entraxe 496mm</text><rect fill="#e0e0e0" height="20.0" stroke="#1565c0" stroke-width="1" width="32.0" x="560.8" y="350.0" /><rect fill="white" height="15.2" stroke="#1565c0" stroke-width="0.5" width="27.2" x="563.1999999999999" y="352.4" /><circle cx="576.8" cy="360" fill="white" r="7.2" stroke="#1565c0" stroke-width="1" /><text fill="#888" font-family="Arial" font-size="7px" text-anchor="middle" x="576.8" y="385.0">section</text><text fill="#555" font-family="Arial" font-size="9px" text-anchor="middle" x="450.0" y="470">Tube rectangulaire 40x25x3mm acier S235</text><text fill="#555" font-family="Arial" font-size="9px" text-anchor="middle" x="450.0" y="485">Percages D18mm a chaque extremite pour boulon D16mm | Pas de plats d'extremite ni bagues — boulon direct dans le tube</text></svg>