<?xml version="1.0" encoding="utf-8" ?>
<svg baseProfile="full" height="500px" version="1.1" width="900px" xmlns="http://www.w3.org/2000/svg" xmlns:ev="http://www.w3.org/2001/xml-events" xmlns:xlink="http://www.w3.org/1999/xlink"><defs /><text font-family="Arial" font-size="14px" font-weight="bold" text-anchor="middle" x="450.0" y="25">BRAS ARTICULES (x4: 2 longs + 2 courts)</text><text fill="gray" font-family="Arial" font-size="10px" text-anchor="middle" x="450.0" y="85">Bras 1 (A-a): L entraxe = 584mm | Tube rect 50x30x3</text><rect fill="#e0e0e0" height="24.0" stroke="#c62828" stroke-width="1.5" width="466.9896786867992" x="96.0" y="128.0" /><rect fill="#ccc" height="40.0" stroke="#c62828" stroke-width="1" width="48.0" x="80" y="120.0" /><circle cx="96.0" cy="140" fill="white" r="8.8" stroke="#c62828" stroke-width="1.5" /><circle cx="96.0" cy="140" fill="white" r="6.4" stroke="#c62828" stroke-width="0.8" /><rect fill="#ccc" height="40.0" stroke="#c62828" stroke-width="1" width="48.0" x="530.9896786867992" y="120.0" /><circle cx="546.9896786867992" cy="140" fill="white" r="8.8" stroke="#c62828" stroke-width="1.5" /><circle cx="546.9896786867992" cy="140" fill="white" r="6.4" stroke="#c62828" stroke-width="0.8" /><line stroke="#333" stroke-width="0.5" x1="96.0" x2="546.9896786867992" y1="180.0" y2="180.0" /><line stroke="#333" stroke-width="0.3" x1="96.0" x2="96.0" y1="170.0" y2="185.0" /><line stroke="#333" stroke-width="0.3" x1="546.9896786867992" x2="546.9896786867992" y1="170.0" y2="185.0" /><line stroke="#333" stroke-width="0.5" x1="96.0" x2="99.0" y1="180.0" y2="178.0" /><line stroke="#333" stroke-width="0.5" x1="96.0" x2="99.0" y1="180.0" y2="182.0" /><line stroke="#333" stroke-width="0.5" x1="546.9896786867992" x2="543.9896786867992" y1="180.0" y2="178.0" /><line stroke="#333" stroke-width="0.5" x1="546.9896786867992" x2="543.9896786867992" y1="180.0" y2="182.0" /><text fill="#333" font-family="Arial" font-size="9px" text-anchor="middle" x="321.4948393433996" y="177.0">entraxe 584mm</text><text fill="#c62828" font-family="Arial" font-size="8px" text-anchor="middle" x="96.0" y="112.0">Pivot mur</text><text fill="#c62828" font-family="Arial" font-size="8px" text-anchor="middle" x="546.9896786867992" y="112.0">Pivot porte</text><text fill="#555" font-family="Arial" font-size="7px" text-anchor="start" x="596.9896786867992" y="140">Bague 16x22x20mm</text><text fill="gray" font-family="Arial" font-size="10px" text-anchor="middle" x="450.0" y="285">Bras 2 (B-b): L entraxe = 425mm | Tube rect 50x30x3</text><rect fill="#e0e0e0" height="24.0" stroke="#1565c0" stroke-width="1.5" width="339.71573057484403" x="96.0" y="328.0" /><rect fill="#ccc" height="40.0" stroke="#1565c0" stroke-width="1" width="48.0" x="80" y="320.0" /><circle cx="96.0" cy="340" fill="white" r="8.8" stroke="#1565c0" stroke-width="1.5" /><circle cx="96.0" cy="340" fill="white" r="6.4" stroke="#1565c0" stroke-width="0.8" /><rect fill="#ccc" height="40.0" stroke="#1565c0" stroke-width="1" width="48.0" x="403.71573057484403" y="320.0" /><circle cx="419.71573057484403" cy="340" fill="white" r="8.8" stroke="#1565c0" stroke-width="1.5" /><circle cx="419.71573057484403" cy="340" fill="white" r="6.4" stroke="#1565c0" stroke-width="0.8" /><line stroke="#333" stroke-width="0.5" x1="96.0" x2="419.71573057484403" y1="380.0" y2="380.0" /><line stroke="#333" stroke-width="0.3" x1="96.0" x2="96.0" y1="370.0" y2="385.0" /><line stroke="#333" stroke-width="0.3" x1="419.71573057484403" x2="419.71573057484403" y1="370.0" y2="385.0" /><line stroke="#333" stroke-width="0.5" x1="96.0" x2="99.0" y1="380.0" y2="378.0" /><line stroke="#333" stroke-width="0.5" x1="96.0" x2="99.0" y1="380.0" y2="382.0" /><line stroke="#333" stroke-width="0.5" x1="419.71573057484403" x2="416.71573057484403" y1="380.0" y2="378.0" /><line stroke="#333" stroke-width="0.5" x1="419.71573057484403" x2="416.71573057484403" y1="380.0" y2="382.0" /><text fill="#333" font-family="Arial" font-size="9px" text-anchor="middle" x="257.857865287422" y="377.0">entraxe 425mm</text><text fill="#1565c0" font-family="Arial" font-size="8px" text-anchor="middle" x="96.0" y="312.0">Pivot mur</text><text fill="#1565c0" font-family="Arial" font-size="8px" text-anchor="middle" x="419.71573057484403" y="312.0">Pivot porte</text><text fill="#555" font-family="Arial" font-size="7px" text-anchor="start" x="469.71573057484403" y="340">Bague 16x22x20mm</text><text fill="#555" font-family="Arial" font-size="9px" text-anchor="middle" x="450.0" y="485">Tube rect 50x30x3 S235 | Plats extremite 80x50x10mm | Bagues iglidur G 16x22x20mm</text></svg>