<?xml version="1.0" encoding="utf-8" ?>
<svg baseProfile="full" height="460px" version="1.1" width="610px" xmlns="http://www.w3.org/2000/svg" xmlns:ev="http://www.w3.org/2001/xml-events" xmlns:xlink="http://www.w3.org/1999/xlink"><defs /><text font-family="Arial" font-size="16px" font-weight="bold" text-anchor="middle" x="305.0" y="20">DETAIL PORTE TRAPEZE + ETAGERES</text><text fill="gray" font-family="Arial" font-size="11px" text-anchor="middle" x="305.0" y="38">820x355mm | Taper 60/60mm | Echelle ~1:2</text><polygon fill="#fff9c4" points="92.5,500.0 122.5,322.5 472.5,322.5 502.5,500.0" stroke="black" stroke-width="2" /><text fill="#c65100" font-family="Arial" font-size="10px" text-anchor="middle" x="297.5" y="507.5">Face CUISINE (visible)</text><text fill="#1565c0" font-family="Arial" font-size="10px" text-anchor="middle" x="297.5" y="310.0">Face BUANDERIE (etageres)</text><line stroke="#795548" stroke-dasharray="8,3" stroke-width="1.5" x1="105.0" x2="490.0" y1="455.625" y2="455.625" /><text fill="#795548" font-family="Arial" font-size="8px" text-anchor="middle" x="297.5" y="459.625">Etagere 1 (y=89mm)</text><line stroke="#795548" stroke-dasharray="8,3" stroke-width="1.5" x1="112.5" x2="482.5" y1="411.25" y2="411.25" /><text fill="#795548" font-family="Arial" font-size="8px" text-anchor="middle" x="297.5" y="415.25">Etagere 2 (y=178mm)</text><line stroke="#795548" stroke-dasharray="8,3" stroke-width="1.5" x1="120.0" x2="475.0" y1="366.875" y2="366.875" /><text fill="#795548" font-family="Arial" font-size="8px" text-anchor="middle" x="297.5" y="370.875">Etagere 3 (y=266mm)</text><circle cx="92.5" cy="500.0" fill="red" r="3" /><text fill="red" font-family="Arial" font-size="8px" font-weight="bold" text-anchor="middle" x="82.5" y="506.0">C1 (25,0)</text><circle cx="122.5" cy="322.5" fill="blue" r="3" /><text fill="blue" font-family="Arial" font-size="8px" font-weight="bold" text-anchor="middle" x="112.5" y="316.5">C2 (85,355)</text><circle cx="472.5" cy="322.5" fill="green" r="3" /><text fill="green" font-family="Arial" font-size="8px" font-weight="bold" text-anchor="middle" x="482.5" y="316.5">C3 (785,355)</text><circle cx="502.5" cy="500.0" fill="orange" r="3" /><text fill="orange" font-family="Arial" font-size="8px" font-weight="bold" text-anchor="middle" x="512.5" y="506.0">C4 (845,0)</text><circle cx="361.65" cy="274.9" fill="red" r="4" stroke="black" /><line stroke="red" stroke-dasharray="3,2" stroke-width="1.5" x1="361.65" x2="361.65" y1="322.5" y2="274.9" /><text fill="red" font-family="Arial" font-size="8px" text-anchor="middle" x="359.15" y="267.4">Pivot a
patte 95mm</text><circle cx="451.35" cy="228.10000000000002" fill="blue" r="4" stroke="black" /><line stroke="blue" stroke-dasharray="3,2" stroke-width="1.5" x1="451.35" x2="451.35" y1="322.5" y2="228.10000000000002" /><text fill="blue" font-family="Arial" font-size="8px" text-anchor="middle" x="453.85" y="220.60000000000002">Pivot b
patte 189mm</text><line stroke="black" stroke-width="0.5" x1="92.5" x2="502.5" y1="520.0" y2="520.0" /><line stroke="black" stroke-width="0.3" x1="92.5" x2="92.5" y1="502.5" y2="522.5" /><line stroke="black" stroke-width="0.3" x1="502.5" x2="502.5" y1="502.5" y2="522.5" /><line stroke="black" stroke-width="0.5" x1="92.5" x2="94.5" y1="520.0" y2="519.0" /><line stroke="black" stroke-width="0.5" x1="92.5" x2="94.5" y1="520.0" y2="521.0" /><line stroke="black" stroke-width="0.5" x1="502.5" x2="500.5" y1="520.0" y2="519.0" /><line stroke="black" stroke-width="0.5" x1="502.5" x2="500.5" y1="520.0" y2="521.0" /><text font-family="Arial" font-size="10px" text-anchor="middle" x="297.5" y="518.5">820mm (cuisine)</text><line stroke="black" stroke-width="0.5" x1="122.5" x2="472.5" y1="307.5" y2="307.5" /><line stroke="black" stroke-width="0.3" x1="122.5" x2="122.5" y1="325.0" y2="310.0" /><line stroke="black" stroke-width="0.3" x1="472.5" x2="472.5" y1="325.0" y2="310.0" /><line stroke="black" stroke-width="0.5" x1="122.5" x2="124.5" y1="307.5" y2="306.5" /><line stroke="black" stroke-width="0.5" x1="122.5" x2="124.5" y1="307.5" y2="308.5" /><line stroke="black" stroke-width="0.5" x1="472.5" x2="470.5" y1="307.5" y2="306.5" /><line stroke="black" stroke-width="0.5" x1="472.5" x2="470.5" y1="307.5" y2="308.5" /><text font-family="Arial" font-size="10px" text-anchor="middle" x="297.5" y="306.0">700mm (buanderie)</text><line stroke="black" stroke-width="0.5" x1="67.5" x2="67.5" y1="500.0" y2="322.5" /><line stroke="black" stroke-width="0.3" x1="90.0" x2="70.0" y1="500.0" y2="500.0" /><line stroke="black" stroke-width="0.3" x1="90.0" x2="70.0" y1="322.5" y2="322.5" /><text font-family="Arial" font-size="10px" transform="rotate(-90,69.0,411.25)" x="69.0" y="411.25">355mm</text><line stroke="black" stroke-width="0.5" x1="92.5" x2="122.5" y1="406.25" y2="406.25" /><line stroke="black" stroke-width="0.3" x1="92.5" x2="92.5" y1="413.75" y2="408.75" /><line stroke="black" stroke-width="0.3" x1="122.5" x2="122.5" y1="413.75" y2="408.75" /><line stroke="black" stroke-width="0.5" x1="92.5" x2="94.5" y1="406.25" y2="405.25" /><line stroke="black" stroke-width="0.5" x1="92.5" x2="94.5" y1="406.25" y2="407.25" /><line stroke="black" stroke-width="0.5" x1="122.5" x2="120.5" y1="406.25" y2="405.25" /><line stroke="black" stroke-width="0.5" x1="122.5" x2="120.5" y1="406.25" y2="407.25" /><text font-family="Arial" font-size="10px" text-anchor="middle" x="107.5" y="404.75">taper 60mm</text><line stroke="black" stroke-width="0.5" x1="472.5" x2="502.5" y1="406.25" y2="406.25" /><line stroke="black" stroke-width="0.3" x1="472.5" x2="472.5" y1="413.75" y2="408.75" /><line stroke="black" stroke-width="0.3" x1="502.5" x2="502.5" y1="413.75" y2="408.75" /><line stroke="black" stroke-width="0.5" x1="472.5" x2="474.5" y1="406.25" y2="405.25" /><line stroke="black" stroke-width="0.5" x1="472.5" x2="474.5" y1="406.25" y2="407.25" /><line stroke="black" stroke-width="0.5" x1="502.5" x2="500.5" y1="406.25" y2="405.25" /><line stroke="black" stroke-width="0.5" x1="502.5" x2="500.5" y1="406.25" y2="407.25" /><text font-family="Arial" font-size="10px" text-anchor="middle" x="487.5" y="404.75">taper 60mm</text></svg>