<?xml version="1.0" encoding="utf-8" ?>
<svg baseProfile="full" height="560px" version="1.1" width="985px" xmlns="http://www.w3.org/2000/svg" xmlns:ev="http://www.w3.org/2001/xml-events" xmlns:xlink="http://www.w3.org/1999/xlink"><defs /><text font-family="Arial" font-size="16px" font-weight="bold" text-anchor="middle" x="492.5" y="20">VUE DE DESSUS - Mecanisme 4-bar linkage</text><text fill="gray" font-family="Arial" font-size="11px" text-anchor="middle" x="492.5" y="38">Porte 820x355mm trapeze | Cadres 25/25mm | Echelle ~1:2</text><rect fill="#d0d0d0" height="177.5" stroke="black" stroke-width="1" width="125.0" x="-45.0" y="322.5" /><text fill="#555" font-family="Arial" font-size="9px" text-anchor="middle" x="17.5" y="411.25">MUR GAUCHE</text><text fill="#555" font-family="Arial" font-size="8px" text-anchor="middle" x="17.5" y="421.25">355mm</text><rect fill="#d0d0d0" height="212.5" stroke="black" stroke-width="1" width="230.0" x="515.0" y="287.5" /><text fill="#555" font-family="Arial" font-size="9px" text-anchor="middle" x="565.0" y="393.75">MUR DROIT</text><text fill="#555" font-family="Arial" font-size="8px" text-anchor="middle" x="565.0" y="403.75">425mm</text><line stroke="red" stroke-dasharray="5,3" stroke-width="1" x1="705.0" x2="705.0" y1="500.0" y2="150.0" /><text fill="red" font-family="Arial" font-size="9px" text-anchor="start" x="710.0" y="175.0">FRIGO</text><rect fill="#8d6e63" fill-opacity="0.4" height="177.5" stroke="black" stroke-width="0.5" width="12.5" x="80.0" y="322.5" /><rect fill="#8d6e63" fill-opacity="0.4" height="177.5" stroke="black" stroke-width="0.5" width="12.5" x="502.5" y="322.5" /><polygon fill="#a5d6a7" fill-opacity="0.5" points="92.5,500.0 122.5,322.5 472.5,322.5 502.5,500.0" stroke="#2e7d32" stroke-width="1.5" /><text fill="#2e7d32" font-family="Arial" font-size="10px" text-anchor="middle" x="297.5" y="411.25">PORTE (fermee)</text><circle cx="92.5" cy="500.0" fill="red" r="3" /><text fill="red" font-family="Arial" font-size="9px" font-weight="bold" text-anchor="middle" x="85.0" y="505.0">C1</text><circle cx="122.5" cy="322.5" fill="blue" r="3" /><text fill="blue" font-family="Arial" font-size="9px" font-weight="bold" text-anchor="middle" x="115.0" y="317.5">C2</text><circle cx="472.5" cy="322.5" fill="green" r="3" /><text fill="green" font-family="Arial" font-size="9px" font-weight="bold" text-anchor="middle" x="480.0" y="317.5">C3</text><circle cx="502.5" cy="500.0" fill="orange" r="3" /><text fill="orange" font-family="Arial" font-size="9px" font-weight="bold" text-anchor="middle" x="510.0" y="505.0">C4</text><circle cx="361.65" cy="274.9" fill="red" r="4" stroke="black" stroke-width="1" /><text fill="red" font-family="Arial" font-size="8px" text-anchor="middle" x="361.65" y="264.9">a (563,450)</text><circle cx="451.35" cy="228.10000000000002" fill="blue" r="4" stroke="black" stroke-width="1" /><text fill="blue" font-family="Arial" font-size="8px" text-anchor="middle" x="451.35" y="218.10000000000002">b (743,544)</text><line stroke="red" stroke-dasharray="3,2" stroke-width="1" x1="361.65" x2="361.65" y1="322.5" y2="274.9" /><line stroke="blue" stroke-dasharray="3,2" stroke-width="1" x1="451.35" x2="451.35" y1="322.5" y2="228.10000000000002" /><circle cx="698.85" cy="286.05" fill="red" r="5" stroke="black" stroke-width="1.5" /><text fill="red" font-family="Arial" font-size="9px" font-weight="bold" text-anchor="middle" x="683.85" y="286.05">A (1238,428)</text><circle cx="674.2" cy="234.2" fill="blue" r="5" stroke="black" stroke-width="1.5" /><text fill="blue" font-family="Arial" font-size="9px" font-weight="bold" text-anchor="middle" x="659.2" y="234.2">B (1188,532)</text><line stroke="red" stroke-opacity="0.6" stroke-width="2" x1="698.85" x2="361.65" y1="286.05" y2="274.9" /><text fill="red" font-family="Arial" font-size="9px" text-anchor="middle" x="530.25" y="285.475">Bras 1: 675mm</text><line stroke="blue" stroke-opacity="0.6" stroke-width="2" x1="674.2" x2="451.35" y1="234.2" y2="228.10000000000002" /><text fill="blue" font-family="Arial" font-size="9px" text-anchor="middle" x="562.7750000000001" y="223.64999999999998">Bras 2: 446mm</text><line stroke="black" stroke-width="0.5" x1="80.0" x2="515.0" y1="520.0" y2="520.0" /><line stroke="black" stroke-width="0.3" x1="80.0" x2="80.0" y1="507.5" y2="522.5" /><line stroke="black" stroke-width="0.3" x1="515.0" x2="515.0" y1="507.5" y2="522.5" /><line stroke="black" stroke-width="0.5" x1="80.0" x2="82.0" y1="520.0" y2="519.0" /><line stroke="black" stroke-width="0.5" x1="80.0" x2="82.0" y1="520.0" y2="521.0" /><line stroke="black" stroke-width="0.5" x1="515.0" x2="513.0" y1="520.0" y2="519.0" /><line stroke="black" stroke-width="0.5" x1="515.0" x2="513.0" y1="520.0" y2="521.0" /><text font-family="Arial" font-size="10px" text-anchor="middle" x="297.5" y="518.5">870mm</text><line stroke="black" stroke-width="0.5" x1="92.5" x2="502.5" y1="532.5" y2="532.5" /><line stroke="black" stroke-width="0.3" x1="92.5" x2="92.5" y1="507.5" y2="535.0" /><line stroke="black" stroke-width="0.3" x1="502.5" x2="502.5" y1="507.5" y2="535.0" /><line stroke="black" stroke-width="0.5" x1="92.5" x2="94.5" y1="532.5" y2="531.5" /><line stroke="black" stroke-width="0.5" x1="92.5" x2="94.5" y1="532.5" y2="533.5" /><line stroke="black" stroke-width="0.5" x1="502.5" x2="500.5" y1="532.5" y2="531.5" /><line stroke="black" stroke-width="0.5" x1="502.5" x2="500.5" y1="532.5" y2="533.5" /><text font-family="Arial" font-size="10px" text-anchor="middle" x="297.5" y="531.0">820mm</text><line stroke="black" stroke-width="0.5" x1="40.0" x2="40.0" y1="500.0" y2="322.5" /><line stroke="black" stroke-width="0.3" x1="67.5" x2="42.5" y1="500.0" y2="500.0" /><line stroke="black" stroke-width="0.3" x1="67.5" x2="42.5" y1="322.5" y2="322.5" /><text font-family="Arial" font-size="10px" transform="rotate(-90,41.5,411.25)" x="41.5" y="411.25">355mm</text><line stroke="black" stroke-width="0.5" x1="555.0" x2="555.0" y1="500.0" y2="287.5" /><line stroke="black" stroke-width="0.3" x1="532.5" x2="557.5" y1="500.0" y2="500.0" /><line stroke="black" stroke-width="0.3" x1="532.5" x2="557.5" y1="287.5" y2="287.5" /><text font-family="Arial" font-size="10px" transform="rotate(-90,556.5,393.75)" x="556.5" y="393.75">425mm</text><line stroke="black" stroke-width="0.5" x1="515.0" x2="705.0" y1="287.5" y2="287.5" /><line stroke="black" stroke-width="0.3" x1="515.0" x2="515.0" y1="280.0" y2="290.0" /><line stroke="black" stroke-width="0.3" x1="705.0" x2="705.0" y1="280.0" y2="290.0" /><line stroke="black" stroke-width="0.5" x1="515.0" x2="517.0" y1="287.5" y2="286.5" /><line stroke="black" stroke-width="0.5" x1="515.0" x2="517.0" y1="287.5" y2="288.5" /><line stroke="black" stroke-width="0.5" x1="705.0" x2="703.0" y1="287.5" y2="286.5" /><line stroke="black" stroke-width="0.5" x1="705.0" x2="703.0" y1="287.5" y2="288.5" /><text font-family="Arial" font-size="10px" text-anchor="middle" x="610.0" y="286.0">380mm</text><text fill="#c65100" font-family="Arial" font-size="14px" font-weight="bold" text-anchor="middle" x="297.5" y="520.0">CUISINE</text><text fill="#1565c0" font-family="Arial" font-size="14px" font-weight="bold" text-anchor="middle" x="297.5" y="175.0">BUANDERIE</text></svg>