<?xml version="1.0" encoding="utf-8" ?>
<svg baseProfile="full" height="900px" version="1.1" width="1100px" xmlns="http://www.w3.org/2000/svg" xmlns:ev="http://www.w3.org/2001/xml-events" xmlns:xlink="http://www.w3.org/1999/xlink"><defs /><text font-family="Arial" font-size="14px" font-weight="bold" text-anchor="middle" x="550.0" y="25">PLATINE PORTE COMBINEE a+b (x2: haut + bas)</text><text fill="gray" font-family="Arial" font-size="10px" text-anchor="middle" x="550.0" y="42">Tole acier S235 ep.5mm, 2 pliages 90 deg + 1 soudure</text><text font-family="Arial" font-size="12px" font-weight="bold" text-anchor="middle" x="280" y="75">1. PATRON DEPLIE (avant pliage)</text><text fill="gray" font-family="Arial" font-size="10px" text-anchor="middle" x="280" y="90">Decouper + percer, puis plier aux lignes rouges</text><rect fill="#e8e8d8" height="73" stroke="black" stroke-width="1.5" width="182" x="100" y="120" /><text fill="#777" font-family="Arial" font-size="8px" text-anchor="middle" x="191.0" y="159.5">COTE (raidisseur)</text><text fill="#999" font-family="Arial" font-size="7px" text-anchor="middle" x="191.0" y="170.5">182x73mm</text><line stroke="#e00" stroke-dasharray="8,4" stroke-width="1.5" x1="100" x2="282" y1="193" y2="193" /><text fill="#e00" font-family="Arial" font-size="8px" text-anchor="end" x="95" y="196">pliage 2</text><rect fill="#d0d8e8" height="210" stroke="black" stroke-width="1.5" width="182" x="100" y="193" /><text fill="#555" font-family="Arial" font-size="8px" text-anchor="middle" x="191.0" y="208">PLAT (perpendiculaire)</text><text fill="#999" font-family="Arial" font-size="7px" text-anchor="middle" x="191.0" y="220">182x210mm</text><circle cx="140.0" cy="332" fill="white" r="9.0" stroke="red" stroke-width="2" /><text fill="red" font-family="Arial" font-size="9px" font-weight="bold" text-anchor="middle" x="140.0" y="317.0">a</text><text fill="red" font-family="Arial" font-size="7px" text-anchor="start" x="152.0" y="335">D18</text><circle cx="242.0" cy="217" fill="white" r="9.0" stroke="blue" stroke-width="2" /><text fill="blue" font-family="Arial" font-size="9px" font-weight="bold" text-anchor="middle" x="242.0" y="202.0">b</text><text fill="blue" font-family="Arial" font-size="7px" text-anchor="start" x="254.0" y="220">D18</text><text fill="red" font-family="Arial" font-size="6px" text-anchor="end" x="115.0" y="335">boulon vers
le HAUT</text><text fill="blue" font-family="Arial" font-size="6px" text-anchor="end" x="217.0" y="220">boulon vers
le BAS</text><line stroke="#e00" stroke-dasharray="8,4" stroke-width="1.5" x1="100" x2="282" y1="403" y2="403" /><text fill="#e00" font-family="Arial" font-size="8px" text-anchor="end" x="95" y="406">pliage 1</text><rect fill="#d8d8d8" height="150" stroke="black" stroke-width="1.5" width="182" x="100" y="403" /><text fill="#555" font-family="Arial" font-size="8px" text-anchor="middle" x="191.0" y="473.0">FOND (contre porte)</text><text fill="#999" font-family="Arial" font-size="7px" text-anchor="middle" x="191.0" y="485.0">182x150mm</text><circle cx="151.0" cy="438.0" fill="#555" r="5" stroke="black" stroke-width="1" /><circle cx="151.0" cy="478.0" fill="#555" r="5" stroke="black" stroke-width="1" /><circle cx="151.0" cy="518.0" fill="#555" r="5" stroke="black" stroke-width="1" /><circle cx="191.0" cy="438.0" fill="#555" r="5" stroke="black" stroke-width="1" /><circle cx="191.0" cy="478.0" fill="#555" r="5" stroke="black" stroke-width="1" /><circle cx="191.0" cy="518.0" fill="#555" r="5" stroke="black" stroke-width="1" /><circle cx="231.0" cy="438.0" fill="#555" r="5" stroke="black" stroke-width="1" /><circle cx="231.0" cy="478.0" fill="#555" r="5" stroke="black" stroke-width="1" /><circle cx="231.0" cy="518.0" fill="#555" r="5" stroke="black" stroke-width="1" /><line stroke="#333" stroke-width="0.5" x1="100" x2="282" y1="100" y2="100" /><line stroke="#333" stroke-width="0.3" x1="100" x2="100" y1="88" y2="105" /><line stroke="#333" stroke-width="0.3" x1="282" x2="282" y1="88" y2="105" /><line stroke="#333" stroke-width="0.5" x1="100" x2="103" y1="100" y2="98" /><line stroke="#333" stroke-width="0.5" x1="100" x2="103" y1="100" y2="102" /><line stroke="#333" stroke-width="0.5" x1="282" x2="279" y1="100" y2="98" /><line stroke="#333" stroke-width="0.5" x1="282" x2="279" y1="100" y2="102" /><text fill="#333" font-family="Arial" font-size="9px" text-anchor="middle" x="191.0" y="97">182mm</text><line stroke="#333" stroke-width="0.5" x1="297" x2="297" y1="120" y2="193" /><line stroke="#333" stroke-width="0.3" x1="292" x2="307" y1="120" y2="120" /><line stroke="#333" stroke-width="0.3" x1="292" x2="307" y1="193" y2="193" /><line stroke="#333" stroke-width="0.5" x1="297" x2="295" y1="120" y2="123" /><line stroke="#333" stroke-width="0.5" x1="297" x2="299" y1="120" y2="123" /><line stroke="#333" stroke-width="0.5" x1="297" x2="295" y1="193" y2="190" /><line stroke="#333" stroke-width="0.5" x1="297" x2="299" y1="193" y2="190" /><text fill="#333" font-family="Arial" font-size="9px" x="309" y="159.5">73mm</text><line stroke="#333" stroke-width="0.5" x1="297" x2="297" y1="193" y2="403" /><line stroke="#333" stroke-width="0.3" x1="292" x2="307" y1="193" y2="193" /><line stroke="#333" stroke-width="0.3" x1="292" x2="307" y1="403" y2="403" /><line stroke="#333" stroke-width="0.5" x1="297" x2="295" y1="193" y2="196" /><line stroke="#333" stroke-width="0.5" x1="297" x2="299" y1="193" y2="196" /><line stroke="#333" stroke-width="0.5" x1="297" x2="295" y1="403" y2="400" /><line stroke="#333" stroke-width="0.5" x1="297" x2="299" y1="403" y2="400" /><text fill="#333" font-family="Arial" font-size="9px" x="309" y="301.0">210mm</text><line stroke="#333" stroke-width="0.5" x1="297" x2="297" y1="403" y2="553" /><line stroke="#333" stroke-width="0.3" x1="292" x2="307" y1="403" y2="403" /><line stroke="#333" stroke-width="0.3" x1="292" x2="307" y1="553" y2="553" /><line stroke="#333" stroke-width="0.5" x1="297" x2="295" y1="403" y2="406" /><line stroke="#333" stroke-width="0.5" x1="297" x2="299" y1="403" y2="406" /><line stroke="#333" stroke-width="0.5" x1="297" x2="295" y1="553" y2="550" /><line stroke="#333" stroke-width="0.5" x1="297" x2="299" y1="553" y2="550" /><text fill="#333" font-family="Arial" font-size="9px" x="309" y="481.0">150mm</text><line stroke="#333" stroke-width="0.5" x1="337" x2="337" y1="120" y2="553" /><line stroke="#333" stroke-width="0.3" x1="332" x2="347" y1="120" y2="120" /><line stroke="#333" stroke-width="0.3" x1="332" x2="347" y1="553" y2="553" /><line stroke="#333" stroke-width="0.5" x1="337" x2="335" y1="120" y2="123" /><line stroke="#333" stroke-width="0.5" x1="337" x2="339" y1="120" y2="123" /><line stroke="#333" stroke-width="0.5" x1="337" x2="335" y1="553" y2="550" /><line stroke="#333" stroke-width="0.5" x1="337" x2="339" y1="553" y2="550" /><text fill="#333" font-family="Arial" font-size="9px" x="349" y="339.5">433mm (total)</text><line stroke="#333" stroke-width="0.5" x1="85" x2="85" y1="403" y2="332" /><line stroke="#333" stroke-width="0.3" x1="80" x2="70" y1="403" y2="403" /><line stroke="#333" stroke-width="0.3" x1="80" x2="70" y1="332" y2="332" /><line stroke="#333" stroke-width="0.5" x1="85" x2="83" y1="403" y2="406" /><line stroke="#333" stroke-width="0.5" x1="85" x2="87" y1="403" y2="406" /><line stroke="#333" stroke-width="0.5" x1="85" x2="83" y1="332" y2="329" /><line stroke="#333" stroke-width="0.5" x1="85" x2="87" y1="332" y2="329" /><text fill="#333" font-family="Arial" font-size="9px" x="72" y="370.5">71mm</text><line stroke="#333" stroke-width="0.5" x1="55" x2="55" y1="403" y2="217" /><line stroke="#333" stroke-width="0.3" x1="50" x2="40" y1="403" y2="403" /><line stroke="#333" stroke-width="0.3" x1="50" x2="40" y1="217" y2="217" /><line stroke="#333" stroke-width="0.5" x1="55" x2="53" y1="403" y2="406" /><line stroke="#333" stroke-width="0.5" x1="55" x2="57" y1="403" y2="406" /><line stroke="#333" stroke-width="0.5" x1="55" x2="53" y1="217" y2="214" /><line stroke="#333" stroke-width="0.5" x1="55" x2="57" y1="217" y2="214" /><text fill="#333" font-family="Arial" font-size="9px" x="42" y="313.0">186mm</text><line stroke="#333" stroke-width="0.5" x1="140.0" x2="242.0" y1="188" y2="188" /><line stroke="#333" stroke-width="0.3" x1="140.0" x2="140.0" y1="180" y2="193" /><line stroke="#333" stroke-width="0.3" x1="242.0" x2="242.0" y1="180" y2="193" /><line stroke="#333" stroke-width="0.5" x1="140.0" x2="143.0" y1="188" y2="186" /><line stroke="#333" stroke-width="0.5" x1="140.0" x2="143.0" y1="188" y2="190" /><line stroke="#333" stroke-width="0.5" x1="242.0" x2="239.0" y1="188" y2="186" /><line stroke="#333" stroke-width="0.5" x1="242.0" x2="239.0" y1="188" y2="190" /><text fill="#333" font-family="Arial" font-size="9px" text-anchor="middle" x="191.0" y="185">102mm</text><text fill="#555" font-family="Arial" font-size="8px" text-anchor="middle" x="191.0" y="573">Boulons traversants M8 (fond -&gt; porte)</text><text font-family="Arial" font-size="12px" font-weight="bold" text-anchor="middle" x="780" y="75">2. PROFIL PLIE (vue de cote)</text><text fill="gray" font-family="Arial" font-size="10px" text-anchor="middle" x="780" y="90">Piece apres pliage, vue depuis le cote</text><rect fill="#e8e8e8" height="90.0" stroke="#bbb" stroke-width="1" width="40" x="610" y="610.0" /><text fill="#999" font-family="Arial" font-size="7px" text-anchor="middle" x="630" y="658.0">PORTE</text><rect fill="#b0b0b0" height="90.0" stroke="black" stroke-width="2" width="3.0" x="650" y="610.0" /><text fill="#555" font-family="Arial" font-size="7px" text-anchor="start" x="661.0" y="658.0">FOND</text><rect fill="#a0a8b8" height="3.0" stroke="black" stroke-width="2" width="126.0" x="653.0" y="610.0" /><circle cx="695.6" cy="611.5" fill="white" r="3" stroke="red" stroke-width="1.5" /><text fill="red" font-family="Arial" font-size="8px" font-weight="bold" text-anchor="middle" x="695.6" y="602.0">a</text><circle cx="764.6" cy="611.5" fill="white" r="3" stroke="blue" stroke-width="1.5" /><text fill="blue" font-family="Arial" font-size="8px" font-weight="bold" text-anchor="middle" x="764.6" y="602.0">b</text><rect fill="#c8c8b8" height="43.8" stroke="black" stroke-width="2" width="3.0" x="776.0" y="613.0" /><text fill="#555" font-family="Arial" font-size="7px" text-anchor="start" x="787.0" y="637.9">COTE</text><line stroke="#c00" stroke-dasharray="3,3" stroke-width="1" x1="777.5" x2="651.5" y1="656.8" y2="700" /><text fill="#c00" font-family="Arial" font-size="7px" text-anchor="middle" x="713.75" y="671.8">1 soudure
(cote -&gt; fond)</text><text fill="#e00" font-family="Arial" font-size="7px" text-anchor="middle" x="651.5" y="595.0">pliage 1</text><text fill="#e00" font-family="Arial" font-size="7px" text-anchor="middle" x="776.0" y="595.0">pliage 2</text><line stroke="#333" stroke-width="0.5" x1="653.0" x2="779.0" y1="628.0" y2="628.0" /><line stroke="#333" stroke-width="0.3" x1="653.0" x2="653.0" y1="620.0" y2="633.0" /><line stroke="#333" stroke-width="0.3" x1="779.0" x2="779.0" y1="620.0" y2="633.0" /><line stroke="#333" stroke-width="0.5" x1="653.0" x2="656.0" y1="628.0" y2="626.0" /><line stroke="#333" stroke-width="0.5" x1="653.0" x2="656.0" y1="628.0" y2="630.0" /><line stroke="#333" stroke-width="0.5" x1="779.0" x2="776.0" y1="628.0" y2="626.0" /><line stroke="#333" stroke-width="0.5" x1="779.0" x2="776.0" y1="628.0" y2="630.0" /><text fill="#333" font-family="Arial" font-size="9px" text-anchor="middle" x="716.0" y="625.0">210mm</text><line stroke="#333" stroke-width="0.5" x1="640" x2="640" y1="610.0" y2="700" /><line stroke="#333" stroke-width="0.3" x1="635" x2="630" y1="610.0" y2="610.0" /><line stroke="#333" stroke-width="0.3" x1="635" x2="630" y1="700" y2="700" /><line stroke="#333" stroke-width="0.5" x1="640" x2="638" y1="610.0" y2="613.0" /><line stroke="#333" stroke-width="0.5" x1="640" x2="642" y1="610.0" y2="613.0" /><line stroke="#333" stroke-width="0.5" x1="640" x2="638" y1="700" y2="697" /><line stroke="#333" stroke-width="0.5" x1="640" x2="642" y1="700" y2="697" /><text fill="#333" font-family="Arial" font-size="9px" x="632" y="658.0">150mm</text><line stroke="#333" stroke-width="0.5" x1="804.0" x2="804.0" y1="613.0" y2="656.8" /><line stroke="#333" stroke-width="0.3" x1="799.0" x2="814.0" y1="613.0" y2="613.0" /><line stroke="#333" stroke-width="0.3" x1="799.0" x2="814.0" y1="656.8" y2="656.8" /><line stroke="#333" stroke-width="0.5" x1="804.0" x2="802.0" y1="613.0" y2="616.0" /><line stroke="#333" stroke-width="0.5" x1="804.0" x2="806.0" y1="613.0" y2="616.0" /><line stroke="#333" stroke-width="0.5" x1="804.0" x2="802.0" y1="656.8" y2="653.8" /><line stroke="#333" stroke-width="0.5" x1="804.0" x2="806.0" y1="656.8" y2="653.8" /><text fill="#333" font-family="Arial" font-size="9px" x="816.0" y="637.9">73mm</text><text fill="#555" font-family="Arial" font-size="9px" text-anchor="middle" x="550.0" y="855">Tole S235 ep.5mm | 2 pliages 90 deg | 1 soudure (bout cote sur fond)</text><text fill="#555" font-family="Arial" font-size="9px" text-anchor="middle" x="550.0" y="870">Pivot a: boulon D16mm vers le HAUT (bras au-dessus du plat) | Pivot b: boulon D16mm vers le BAS (bras en-dessous)</text><text fill="#555" font-family="Arial" font-size="9px" text-anchor="middle" x="550.0" y="885">Fixation porte: boulons traversants M8 dans le fond</text></svg>