<?xml version="1.0" encoding="utf-8" ?>
<svg baseProfile="full" height="1400px" version="1.1" width="1200px" xmlns="http://www.w3.org/2000/svg" xmlns:ev="http://www.w3.org/2001/xml-events" xmlns:xlink="http://www.w3.org/1999/xlink"><defs /><text font-family="Arial" font-size="14px" font-weight="bold" text-anchor="middle" x="600.0" y="25">PLATINE PORTE MONOBLOC (x2: haut + bas)</text><text fill="gray" font-family="Arial" font-size="10px" text-anchor="middle" x="600.0" y="42">Semelle + 2 pattes (a: 71mm, b: 186mm)</text><text font-family="Arial" font-size="11px" font-weight="bold" text-anchor="middle" x="350" y="70">VUE DE FACE (depuis buanderie)</text><line stroke="green" stroke-dasharray="8,4" stroke-width="2" x1="120" x2="600.0" y1="500" y2="500" /><text fill="green" font-family="Arial" font-size="8px" text-anchor="middle" x="360.0" y="515">face arriere porte (y=355)</text><rect fill="#e0d0c0" height="96.0" stroke="black" stroke-width="1.5" width="218.52" x="192.0" y="404.0" /><text font-family="Arial" font-size="8px" text-anchor="middle" x="301.26" y="455.0">Semelle 182x80x8mm</text><circle cx="222.0" cy="428.0" fill="#555" r="3" stroke="black" stroke-width="1" /><circle cx="222.0" cy="476.0" fill="#555" r="3" stroke="black" stroke-width="1" /><circle cx="240.0" cy="428.0" fill="#555" r="3" stroke="black" stroke-width="1" /><circle cx="240.0" cy="476.0" fill="#555" r="3" stroke="black" stroke-width="1" /><circle cx="258.0" cy="428.0" fill="#555" r="3" stroke="black" stroke-width="1" /><circle cx="258.0" cy="476.0" fill="#555" r="3" stroke="black" stroke-width="1" /><circle cx="344.52" cy="428.0" fill="#555" r="3" stroke="black" stroke-width="1" /><circle cx="344.52" cy="476.0" fill="#555" r="3" stroke="black" stroke-width="1" /><circle cx="362.52" cy="428.0" fill="#555" r="3" stroke="black" stroke-width="1" /><circle cx="362.52" cy="476.0" fill="#555" r="3" stroke="black" stroke-width="1" /><circle cx="380.52" cy="428.0" fill="#555" r="3" stroke="black" stroke-width="1" /><circle cx="380.52" cy="476.0" fill="#555" r="3" stroke="black" stroke-width="1" /><rect fill="#ffcccc" height="85.56000000000002" stroke="red" stroke-width="1.5" width="48.0" x="216.0" y="318.44" /><circle cx="240.0" cy="342.44" fill="white" r="9.6" stroke="red" stroke-width="2" /><text fill="red" font-family="Arial" font-size="9px" font-weight="bold" text-anchor="middle" x="240.0" y="310.44">Pivot a</text><text fill="red" font-family="Arial" font-size="7px" text-anchor="start" x="269.0" y="345.44">boulon D16
dans la patte</text><rect fill="#ccccff" height="222.72000000000003" stroke="blue" stroke-width="1.5" width="60.0" x="332.52" y="181.27999999999997" /><circle cx="362.52" cy="205.27999999999997" fill="white" r="9.6" stroke="blue" stroke-width="2" /><text fill="blue" font-family="Arial" font-size="9px" font-weight="bold" text-anchor="middle" x="362.52" y="173.27999999999997">Pivot b</text><text fill="blue" font-family="Arial" font-size="7px" text-anchor="start" x="397.52" y="208.27999999999997">boulon D16
dans la patte</text><polygon fill="#ffdddd" points="216.0,404.0 216.0,318.44 144.0,404.0" stroke="black" stroke-width="0.8" /><polygon fill="#ddddff" points="332.52,404.0 332.52,181.27999999999997 260.52,404.0" stroke="black" stroke-width="0.8" /><text fill="#555" font-family="Arial" font-size="7px" text-anchor="middle" x="181.0" y="361.21999999999997">gousset
jusqu'au bout
(1 cote)</text><text fill="#aaa" font-family="Arial" font-size="7px" text-anchor="start" x="402.52" y="292.64">cote bras
(libre)</text><line stroke="#333" stroke-width="0.5" x1="240.0" x2="362.52" y1="530" y2="530" /><line stroke="#333" stroke-width="0.3" x1="240.0" x2="240.0" y1="520" y2="535" /><line stroke="#333" stroke-width="0.3" x1="362.52" x2="362.52" y1="520" y2="535" /><line stroke="#333" stroke-width="0.5" x1="240.0" x2="243.0" y1="530" y2="528" /><line stroke="#333" stroke-width="0.5" x1="240.0" x2="243.0" y1="530" y2="532" /><line stroke="#333" stroke-width="0.5" x1="362.52" x2="359.52" y1="530" y2="528" /><line stroke="#333" stroke-width="0.5" x1="362.52" x2="359.52" y1="530" y2="532" /><text fill="#333" font-family="Arial" font-size="9px" text-anchor="middle" x="301.26" y="527">entraxe 102mm</text><line stroke="#333" stroke-width="0.5" x1="422.52" x2="422.52" y1="404.0" y2="181.27999999999997" /><line stroke="#333" stroke-width="0.3" x1="417.52" x2="432.52" y1="404.0" y2="404.0" /><line stroke="#333" stroke-width="0.3" x1="417.52" x2="432.52" y1="181.27999999999997" y2="181.27999999999997" /><line stroke="#333" stroke-width="0.5" x1="422.52" x2="420.52" y1="404.0" y2="407.0" /><line stroke="#333" stroke-width="0.5" x1="422.52" x2="424.52" y1="404.0" y2="407.0" /><line stroke="#333" stroke-width="0.5" x1="422.52" x2="420.52" y1="181.27999999999997" y2="178.27999999999997" /><line stroke="#333" stroke-width="0.5" x1="422.52" x2="424.52" y1="181.27999999999997" y2="178.27999999999997" /><text fill="#333" font-family="Arial" font-size="9px" x="434.52" y="295.64">patte b: 186mm</text><line stroke="#333" stroke-width="0.5" x1="190.0" x2="190.0" y1="404.0" y2="318.44" /><line stroke="#333" stroke-width="0.3" x1="185.0" x2="180.0" y1="404.0" y2="404.0" /><line stroke="#333" stroke-width="0.3" x1="185.0" x2="180.0" y1="318.44" y2="318.44" /><line stroke="#333" stroke-width="0.5" x1="190.0" x2="188.0" y1="404.0" y2="407.0" /><line stroke="#333" stroke-width="0.5" x1="190.0" x2="192.0" y1="404.0" y2="407.0" /><line stroke="#333" stroke-width="0.5" x1="190.0" x2="188.0" y1="318.44" y2="315.44" /><line stroke="#333" stroke-width="0.5" x1="190.0" x2="192.0" y1="318.44" y2="315.44" /><text fill="#333" font-family="Arial" font-size="9px" x="182.0" y="364.22">patte a: 71mm</text><text font-family="Arial" font-size="11px" font-weight="bold" text-anchor="middle" x="850" y="70">VUE DE PROFIL (coupe)</text><rect fill="#c8e6c9" height="213.0" stroke="green" stroke-width="1.5" width="144.0" x="750" y="237.0" /><text fill="green" font-family="Arial" font-size="9px" text-anchor="middle" x="822.0" y="346.5">PORTE</text><text fill="#888" font-family="Arial" font-size="7px" text-anchor="middle" x="822.0" y="462">face cuisine</text><text fill="#888" font-family="Arial" font-size="7px" text-anchor="middle" x="822.0" y="229.0">face buanderie</text><rect fill="#e0d0c0" height="9.6" stroke="black" stroke-width="1" width="48.0" x="798.0" y="227.4" /><text fill="#555" font-family="Arial" font-size="7px" text-anchor="start" x="851.0" y="235.20000000000002">semelle 8mm</text><rect fill="#999" height="3.5999999999999996" stroke="black" stroke-width="0.5" width="38.0" x="803.0" y="242.0" /><text fill="#555" font-family="Arial" font-size="7px" text-anchor="start" x="851.0" y="247.0">contre-plaque 3mm</text><rect fill="#ffcccc" height="72.0" stroke="red" stroke-width="1" width="18.0" x="813.0" y="155.4" /><polygon fill="#e0e0e0" points="831.0,227.4 851.0,227.4 831.0,191.4" stroke="black" stroke-width="0.5" /><text fill="#555" font-family="Arial" font-size="7px" text-anchor="start" x="853.0" y="222.4">gousset</text><circle cx="822.0" cy="155.4" fill="white" r="5" stroke="red" stroke-width="1.5" /><line stroke="#555" stroke-dasharray="2,2" stroke-width="0.5" x1="802.0" x2="842.0" y1="242.4" y2="242.4" /><line stroke="#555" stroke-dasharray="2,2" stroke-width="0.5" x1="802.0" x2="842.0" y1="251.4" y2="251.4" /><line stroke="#555" stroke-dasharray="2,2" stroke-width="0.5" x1="802.0" x2="842.0" y1="260.4" y2="260.4" /><text fill="#555" font-family="Arial" font-size="7px" text-anchor="middle" x="822.0" y="368.5">boulons M8
traversants</text><text font-family="Arial" font-size="11px" font-weight="bold" text-anchor="middle" x="600.0" y="700">VUE DE DESSUS (depuis au-dessus)</text><rect fill="#c8e6c9" height="213.0" stroke="green" stroke-width="1.5" width="492.0" x="150" y="887.0" /><text fill="#888" font-family="Arial" font-size="7px" text-anchor="middle" x="396.0" y="1112">face cuisine (y=0)</text><text fill="#888" font-family="Arial" font-size="7px" text-anchor="middle" x="396.0" y="879.0">face buanderie (y=355)</text><text fill="green" font-family="Arial" font-size="10px" text-anchor="middle" x="396.0" y="996.5">PORTE</text><rect fill="#e0d0c0" height="48.0" stroke="black" stroke-width="1" width="109.26" x="240.0" y="839.0" /><text fill="#555" font-family="Arial" font-size="7px" text-anchor="middle" x="294.63" y="866.0">semelle</text><rect fill="#ffcccc" height="42.78000000000001" stroke="red" stroke-width="1.5" width="24.0" x="252.0" y="796.22" /><rect fill="#ccccff" height="111.36000000000001" stroke="blue" stroke-width="1.5" width="30.0" x="310.26" y="727.64" /><circle cx="264.0" cy="808.22" fill="white" r="4.8" stroke="red" stroke-width="1.5" /><circle cx="325.26" cy="739.64" fill="white" r="4.8" stroke="blue" stroke-width="1.5" /><text fill="red" font-family="Arial" font-size="9px" font-weight="bold" text-anchor="middle" x="264.0" y="788.22">a</text><text fill="blue" font-family="Arial" font-size="9px" font-weight="bold" text-anchor="middle" x="325.26" y="719.64">b</text><polygon fill="#ffdddd" points="252.0,839.0 252.0,796.22 234.0,839.0" stroke="black" stroke-width="0.5" /><polygon fill="#ddddff" points="310.26,839.0 310.26,727.64 292.26,839.0" stroke="black" stroke-width="0.5" /><text fill="red" font-family="Arial" font-size="7px" text-anchor="start" x="314.0" y="817.61">-&gt; bras 1 (584mm)</text><text fill="blue" font-family="Arial" font-size="7px" text-anchor="start" x="375.26" y="783.3199999999999">-&gt; bras 2 (425mm)</text><line stroke="#333" stroke-width="0.5" x1="264.0" x2="325.26" y1="1125" y2="1125" /><line stroke="#333" stroke-width="0.3" x1="264.0" x2="264.0" y1="1115" y2="1130" /><line stroke="#333" stroke-width="0.3" x1="325.26" x2="325.26" y1="1115" y2="1130" /><line stroke="#333" stroke-width="0.5" x1="264.0" x2="267.0" y1="1125" y2="1123" /><line stroke="#333" stroke-width="0.5" x1="264.0" x2="267.0" y1="1125" y2="1127" /><line stroke="#333" stroke-width="0.5" x1="325.26" x2="322.26" y1="1125" y2="1123" /><line stroke="#333" stroke-width="0.5" x1="325.26" x2="322.26" y1="1125" y2="1127" /><text fill="#333" font-family="Arial" font-size="9px" text-anchor="middle" x="294.63" y="1122">entraxe 102mm</text><line stroke="#333" stroke-width="0.5" x1="365.26" x2="365.26" y1="839.0" y2="727.64" /><line stroke="#333" stroke-width="0.3" x1="360.26" x2="375.26" y1="839.0" y2="839.0" /><line stroke="#333" stroke-width="0.3" x1="360.26" x2="375.26" y1="727.64" y2="727.64" /><line stroke="#333" stroke-width="0.5" x1="365.26" x2="363.26" y1="839.0" y2="842.0" /><line stroke="#333" stroke-width="0.5" x1="365.26" x2="367.26" y1="839.0" y2="842.0" /><line stroke="#333" stroke-width="0.5" x1="365.26" x2="363.26" y1="727.64" y2="724.64" /><line stroke="#333" stroke-width="0.5" x1="365.26" x2="367.26" y1="727.64" y2="724.64" /><text fill="#333" font-family="Arial" font-size="9px" x="377.26" y="786.3199999999999">186mm</text><text fill="#555" font-family="Arial" font-size="9px" text-anchor="middle" x="600.0" y="1370">Patte a: tube 40x40x3 L=71mm | Patte b: tube 50x50x4 L=186mm</text><text fill="#555" font-family="Arial" font-size="9px" text-anchor="middle" x="600.0" y="1385">Pivots = boulons D16mm dans les pattes | Goussets d'un seul cote (oppose au bras) jusqu'au bout | 12x M8 traversants</text></svg>