<?xml version="1.0" encoding="utf-8" ?>
<svg baseProfile="full" height="1000px" version="1.1" width="1200px" xmlns="http://www.w3.org/2000/svg" xmlns:ev="http://www.w3.org/2001/xml-events" xmlns:xlink="http://www.w3.org/1999/xlink"><defs /><text font-family="Arial" font-size="14px" font-weight="bold" text-anchor="middle" x="600.0" y="25">PLATINE MURALE MONOBLOC (x2: haut + bas)</text><text fill="gray" font-family="Arial" font-size="10px" text-anchor="middle" x="600.0" y="42">Tole acier 6mm, 2 pliages a 90 deg, goussets soudes d'un cote</text><text font-family="Arial" font-size="12px" font-weight="bold" text-anchor="middle" x="400" y="80">1. TOLE DEPLIEE (patron avant pliage)</text><text fill="gray" font-family="Arial" font-size="9px" text-anchor="middle" x="400" y="95">Decouper cette forme dans une tole de 6mm — gousset integre</text><polygon fill="#d8d8d8" points="80,130 280.0,130 280.0,190.0 360.0,190.0 360.0,351.1 280.0,351.1 230.0,351.1 230.0,411.1 80,411.1 80,130" stroke="black" stroke-width="2" /><rect fill="#d0d0d0" height="58.0" stroke="none" stroke-width="1" width="198.0" x="81" y="131" /><text font-family="Arial" font-size="8px" text-anchor="middle" x="180.0" y="163.0">PLAT BASE
200x60mm</text><rect fill="#e8e8e8" height="159.10000000000002" stroke="none" stroke-width="1" width="198.0" x="81" y="191.0" /><text fill="#888" font-family="Arial" font-size="8px" text-anchor="middle" x="180.0" y="273.55">MONTANT
(pliage)
161.10000000000002mm</text><rect fill="#ffe0b0" height="159.10000000000002" stroke="none" stroke-width="1" width="78.0" x="281.0" y="191.0" /><text fill="#b07000" font-family="Arial" font-size="7px" text-anchor="middle" x="320.0" y="273.55">LANGUETTE
GOUSSET
80x161.10000000000002mm
(se plie contre
le montant)</text><rect fill="#d0d0d0" height="58.0" stroke="none" stroke-width="1" width="148.0" x="81" y="352.1" /><text font-family="Arial" font-size="8px" text-anchor="middle" x="155.0" y="384.1">PLAT TOP
150x60mm</text><circle cx="120.0" cy="160.0" fill="white" r="8.0" stroke="red" stroke-width="2" /><text fill="red" font-family="Arial" font-size="9px" font-weight="bold" text-anchor="middle" x="120.0" y="122">A</text><circle cx="160.0" cy="160.0" fill="#555" r="5" stroke="black" stroke-width="1" /><circle cx="210.0" cy="160.0" fill="#555" r="5" stroke="black" stroke-width="1" /><circle cx="260.0" cy="160.0" fill="#555" r="5" stroke="black" stroke-width="1" /><circle cx="130.0" cy="381.1" fill="white" r="8.0" stroke="blue" stroke-width="2" /><text fill="blue" font-family="Arial" font-size="9px" font-weight="bold" text-anchor="middle" x="130.0" y="426.1">B</text><line stroke="#e00" stroke-dasharray="8,4" stroke-width="1.5" x1="80" x2="280.0" y1="190.0" y2="190.0" /><text fill="#e00" font-family="Arial" font-size="8px" text-anchor="end" x="75" y="193.0">pliage 1 -&gt;</text><line stroke="#e00" stroke-dasharray="8,4" stroke-width="1.5" x1="80" x2="230.0" y1="351.1" y2="351.1" /><text fill="#e00" font-family="Arial" font-size="8px" text-anchor="end" x="75" y="354.1">pliage 2 -&gt;</text><line stroke="#e00" stroke-dasharray="8,4" stroke-width="1.5" x1="280.0" x2="280.0" y1="190.0" y2="351.1" /><text fill="#e00" font-family="Arial" font-size="7px" text-anchor="start" x="370.0" y="270.55">pliage 3
(languette
se rabat
contre
le montant)</text><text fill="#c00" font-family="Arial" font-size="7px" text-anchor="middle" x="320.0" y="366.1">1 soudure ici
(bout de languette
sur plat top)</text><line stroke="#333" stroke-width="0.5" x1="80" x2="280.0" y1="115" y2="115" /><line stroke="#333" stroke-width="0.3" x1="80" x2="80" y1="107" y2="120" /><line stroke="#333" stroke-width="0.3" x1="280.0" x2="280.0" y1="107" y2="120" /><line stroke="#333" stroke-width="0.5" x1="80" x2="83" y1="115" y2="113" /><line stroke="#333" stroke-width="0.5" x1="80" x2="83" y1="115" y2="117" /><line stroke="#333" stroke-width="0.5" x1="280.0" x2="277.0" y1="115" y2="113" /><line stroke="#333" stroke-width="0.5" x1="280.0" x2="277.0" y1="115" y2="117" /><text fill="#333" font-family="Arial" font-size="9px" text-anchor="middle" x="180.0" y="112">200mm</text><line stroke="#333" stroke-width="0.5" x1="280.0" x2="360.0" y1="115" y2="115" /><line stroke="#333" stroke-width="0.3" x1="280.0" x2="280.0" y1="107" y2="120" /><line stroke="#333" stroke-width="0.3" x1="360.0" x2="360.0" y1="107" y2="120" /><line stroke="#333" stroke-width="0.5" x1="280.0" x2="283.0" y1="115" y2="113" /><line stroke="#333" stroke-width="0.5" x1="280.0" x2="283.0" y1="115" y2="117" /><line stroke="#333" stroke-width="0.5" x1="360.0" x2="357.0" y1="115" y2="113" /><line stroke="#333" stroke-width="0.5" x1="360.0" x2="357.0" y1="115" y2="117" /><text fill="#333" font-family="Arial" font-size="9px" text-anchor="middle" x="320.0" y="112">80mm</text><line stroke="#333" stroke-width="0.5" x1="80" x2="360.0" y1="95" y2="95" /><line stroke="#333" stroke-width="0.3" x1="80" x2="80" y1="87" y2="100" /><line stroke="#333" stroke-width="0.3" x1="360.0" x2="360.0" y1="87" y2="100" /><line stroke="#333" stroke-width="0.5" x1="80" x2="83" y1="95" y2="93" /><line stroke="#333" stroke-width="0.5" x1="80" x2="83" y1="95" y2="97" /><line stroke="#333" stroke-width="0.5" x1="360.0" x2="357.0" y1="95" y2="93" /><line stroke="#333" stroke-width="0.5" x1="360.0" x2="357.0" y1="95" y2="97" /><text fill="#333" font-family="Arial" font-size="9px" text-anchor="middle" x="220.0" y="92">280mm (total)</text><line stroke="#333" stroke-width="0.5" x1="400.0" x2="400.0" y1="130" y2="190.0" /><line stroke="#333" stroke-width="0.3" x1="395.0" x2="410.0" y1="130" y2="130" /><line stroke="#333" stroke-width="0.3" x1="395.0" x2="410.0" y1="190.0" y2="190.0" /><line stroke="#333" stroke-width="0.5" x1="400.0" x2="398.0" y1="130" y2="133" /><line stroke="#333" stroke-width="0.5" x1="400.0" x2="402.0" y1="130" y2="133" /><line stroke="#333" stroke-width="0.5" x1="400.0" x2="398.0" y1="190.0" y2="187.0" /><line stroke="#333" stroke-width="0.5" x1="400.0" x2="402.0" y1="190.0" y2="187.0" /><text fill="#333" font-family="Arial" font-size="9px" x="412.0" y="163.0">60mm</text><line stroke="#333" stroke-width="0.5" x1="400.0" x2="400.0" y1="190.0" y2="351.1" /><line stroke="#333" stroke-width="0.3" x1="395.0" x2="410.0" y1="190.0" y2="190.0" /><line stroke="#333" stroke-width="0.3" x1="395.0" x2="410.0" y1="351.1" y2="351.1" /><line stroke="#333" stroke-width="0.5" x1="400.0" x2="398.0" y1="190.0" y2="193.0" /><line stroke="#333" stroke-width="0.5" x1="400.0" x2="402.0" y1="190.0" y2="193.0" /><line stroke="#333" stroke-width="0.5" x1="400.0" x2="398.0" y1="351.1" y2="348.1" /><line stroke="#333" stroke-width="0.5" x1="400.0" x2="402.0" y1="351.1" y2="348.1" /><text fill="#333" font-family="Arial" font-size="9px" x="412.0" y="273.55">161.10000000000002mm</text><line stroke="#333" stroke-width="0.5" x1="400.0" x2="400.0" y1="351.1" y2="411.1" /><line stroke="#333" stroke-width="0.3" x1="395.0" x2="410.0" y1="351.1" y2="351.1" /><line stroke="#333" stroke-width="0.3" x1="395.0" x2="410.0" y1="411.1" y2="411.1" /><line stroke="#333" stroke-width="0.5" x1="400.0" x2="398.0" y1="351.1" y2="354.1" /><line stroke="#333" stroke-width="0.5" x1="400.0" x2="402.0" y1="351.1" y2="354.1" /><line stroke="#333" stroke-width="0.5" x1="400.0" x2="398.0" y1="411.1" y2="408.1" /><line stroke="#333" stroke-width="0.5" x1="400.0" x2="402.0" y1="411.1" y2="408.1" /><text fill="#333" font-family="Arial" font-size="9px" x="412.0" y="384.1">60mm</text><text font-family="Arial" font-size="12px" font-weight="bold" text-anchor="middle" x="250" y="400">2. VUE DE PROFIL (piece pliee, vue de cote)</text><rect fill="#e8e8e8" height="297.5" stroke="#bbb" stroke-width="1" width="70" x="130" y="632.5" /><text fill="#999" font-family="Arial" font-size="9px" text-anchor="middle" x="165" y="781.25">MUR</text><rect fill="#b0b0b0" height="4.199999999999999" stroke="black" stroke-width="2" width="42.0" x="200" y="628.3" /><circle cx="221.0" cy="630.4" fill="white" r="5.6" stroke="red" stroke-width="2" /><text fill="red" font-family="Arial" font-size="10px" font-weight="bold" text-anchor="middle" x="221.0" y="616.3">A</text><rect fill="#b0b0b0" height="112.77000000000001" stroke="black" stroke-width="2" width="4.199999999999999" x="237.8" y="519.73" /><rect fill="#b0b0b0" height="4.199999999999999" stroke="black" stroke-width="2" width="42.0" x="200.0" y="515.53" /><circle cx="221.0" cy="517.63" fill="white" r="5.6" stroke="blue" stroke-width="2" /><text fill="blue" font-family="Arial" font-size="10px" font-weight="bold" text-anchor="middle" x="221.0" y="503.53">B</text><rect fill="#ffe0b0" height="112.77000000000001" stroke="black" stroke-width="1" width="4.199999999999999" x="242.0" y="519.73" /><text fill="#b07000" font-family="Arial" font-size="7px" text-anchor="start" x="251.20000000000002" y="576.115">languette
gousset
(rabattue)</text><text fill="#c00" font-family="Arial" font-size="6px" text-anchor="start" x="251.20000000000002" y="514.73">* soudure</text><text fill="#e00" font-family="Arial" font-size="7px" text-anchor="start" x="257.0" y="630.4">pliage 1</text><text fill="#e00" font-family="Arial" font-size="7px" text-anchor="middle" x="239.9" y="504.73">pliage 2</text><line stroke="#333" stroke-width="0.5" x1="270.4" x2="270.4" y1="628.3" y2="519.73" /><line stroke="#333" stroke-width="0.3" x1="265.4" x2="280.4" y1="628.3" y2="628.3" /><line stroke="#333" stroke-width="0.3" x1="265.4" x2="280.4" y1="519.73" y2="519.73" /><line stroke="#333" stroke-width="0.5" x1="270.4" x2="268.4" y1="628.3" y2="631.3" /><line stroke="#333" stroke-width="0.5" x1="270.4" x2="272.4" y1="628.3" y2="631.3" /><line stroke="#333" stroke-width="0.5" x1="270.4" x2="268.4" y1="519.73" y2="516.73" /><line stroke="#333" stroke-width="0.5" x1="270.4" x2="272.4" y1="519.73" y2="516.73" /><text fill="#333" font-family="Arial" font-size="9px" x="282.4" y="577.015">161.10000000000002mm</text><line stroke="#333" stroke-width="0.5" x1="200" x2="242.0" y1="945" y2="945" /><line stroke="#333" stroke-width="0.3" x1="200" x2="200" y1="935" y2="950" /><line stroke="#333" stroke-width="0.3" x1="242.0" x2="242.0" y1="935" y2="950" /><line stroke="#333" stroke-width="0.5" x1="200" x2="203" y1="945" y2="943" /><line stroke="#333" stroke-width="0.5" x1="200" x2="203" y1="945" y2="947" /><line stroke="#333" stroke-width="0.5" x1="242.0" x2="239.0" y1="945" y2="943" /><line stroke="#333" stroke-width="0.5" x1="242.0" x2="239.0" y1="945" y2="947" /><text fill="#333" font-family="Arial" font-size="9px" text-anchor="middle" x="221.0" y="942">60mm</text><text fill="#c65100" font-family="Arial" font-size="7px" text-anchor="middle" x="165" y="942">cuisine</text><text fill="#1565c0" font-family="Arial" font-size="8px" text-anchor="middle" x="200.0" y="485.53">buanderie</text><circle cx="210.5" cy="630.4" fill="#555" r="3" stroke="black" stroke-width="1" /><circle cx="224.5" cy="630.4" fill="#555" r="3" stroke="black" stroke-width="1" /><text fill="#555" font-family="Arial" font-size="7px" text-anchor="middle" x="217.5" y="960">chevilles M12</text><line stroke="#aaa" stroke-dasharray="3,3" stroke-width="0.5" x1="187.8" x2="232.8" y1="576.115" y2="576.115" /><text fill="#aaa" font-family="Arial" font-size="7px" text-anchor="end" x="182.8" y="576.115">bras
(libre)</text><text font-family="Arial" font-size="12px" font-weight="bold" text-anchor="middle" x="850" y="400">3. VUE DE DESSUS (piece pliee)</text><rect fill="#d0d0d0" height="60.0" stroke="black" stroke-width="1.5" width="200.0" x="700" y="700" /><text fill="#888" font-family="Arial" font-size="8px" text-anchor="middle" x="800.0" y="775.0">plaque base (sur mur)</text><circle cx="740.0" cy="730.0" fill="white" r="8.0" stroke="red" stroke-width="2" /><text fill="red" font-family="Arial" font-size="9px" font-weight="bold" text-anchor="middle" x="740.0" y="692">A</text><circle cx="780.0" cy="730.0" fill="#555" r="4" stroke="black" stroke-width="1" /><circle cx="830.0" cy="730.0" fill="#555" r="4" stroke="black" stroke-width="1" /><circle cx="880.0" cy="730.0" fill="#555" r="4" stroke="black" stroke-width="1" /><rect fill="#b0b0b0" height="161.10000000000002" stroke="black" stroke-width="1" width="6.0" x="700" y="538.9" /><rect fill="#d0d0d0" height="60.0" stroke="black" stroke-width="1.5" width="150.0" x="680.0" y="478.9" /><text fill="#888" font-family="Arial" font-size="8px" text-anchor="middle" x="755.0" y="468.9">plaque top</text><circle cx="750.0" cy="508.9" fill="white" r="8.0" stroke="blue" stroke-width="2" /><text fill="blue" font-family="Arial" font-size="9px" font-weight="bold" text-anchor="middle" x="770.0" y="511.9">B</text><polygon fill="#e0e0e0" points="706.0,700 786.0,700 706.0,620.0" stroke="black" stroke-width="0.5" /><text fill="#555" font-family="Arial" font-size="7px" text-anchor="middle" x="732.6666666666666" y="673.3333333333334">gousset</text><line stroke="#333" stroke-width="0.5" x1="915.0" x2="915.0" y1="700" y2="538.9" /><line stroke="#333" stroke-width="0.3" x1="910.0" x2="925.0" y1="700" y2="700" /><line stroke="#333" stroke-width="0.3" x1="910.0" x2="925.0" y1="538.9" y2="538.9" /><line stroke="#333" stroke-width="0.5" x1="915.0" x2="913.0" y1="700" y2="703" /><line stroke="#333" stroke-width="0.5" x1="915.0" x2="917.0" y1="700" y2="703" /><line stroke="#333" stroke-width="0.5" x1="915.0" x2="913.0" y1="538.9" y2="535.9" /><line stroke="#333" stroke-width="0.5" x1="915.0" x2="917.0" y1="538.9" y2="535.9" /><text fill="#333" font-family="Arial" font-size="9px" x="927.0" y="622.45">161.10000000000002mm</text><line stroke="#333" stroke-width="0.5" x1="700" x2="900.0" y1="790.0" y2="790.0" /><line stroke="#333" stroke-width="0.3" x1="700" x2="700" y1="780.0" y2="795.0" /><line stroke="#333" stroke-width="0.3" x1="900.0" x2="900.0" y1="780.0" y2="795.0" /><line stroke="#333" stroke-width="0.5" x1="700" x2="703" y1="790.0" y2="788.0" /><line stroke="#333" stroke-width="0.5" x1="700" x2="703" y1="790.0" y2="792.0" /><line stroke="#333" stroke-width="0.5" x1="900.0" x2="897.0" y1="790.0" y2="788.0" /><line stroke="#333" stroke-width="0.5" x1="900.0" x2="897.0" y1="790.0" y2="792.0" /><text fill="#333" font-family="Arial" font-size="9px" text-anchor="middle" x="800.0" y="787.0">200mm</text><text fill="#999" font-family="Arial" font-size="8px" text-anchor="end" x="670" y="730.0">MUR -&gt;</text><text fill="#1565c0" font-family="Arial" font-size="8px" text-anchor="end" x="670" y="538.9">BUANDERIE</text><text fill="#555" font-family="Arial" font-size="9px" text-anchor="middle" x="600.0" y="970">Tole S235 ep.6mm | 2 pliages 90 deg | Goussets tole 5mm soudes d'un cote (oppose aux bras)</text><text fill="#555" font-family="Arial" font-size="9px" text-anchor="middle" x="600.0" y="985">Pivots = boulons D16mm traversant la tole | Fixation mur: 3x chevilles chimiques M12</text></svg>