<?xml version="1.0" encoding="utf-8" ?>
<svg baseProfile="full" height="850px" version="1.1" width="1100px" xmlns="http://www.w3.org/2000/svg" xmlns:ev="http://www.w3.org/2001/xml-events" xmlns:xlink="http://www.w3.org/1999/xlink"><defs /><text font-family="Arial" font-size="14px" font-weight="bold" text-anchor="middle" x="550.0" y="25">PLATINE MURALE COMBINEE A+B (x2: haut + bas)</text><text fill="gray" font-family="Arial" font-size="10px" text-anchor="middle" x="550.0" y="42">Tole acier S235 ep.5mm, 2 pliages 90 deg + 1 soudure</text><text font-family="Arial" font-size="12px" font-weight="bold" text-anchor="middle" x="250" y="75">1. PATRON DEPLIE (avant pliage)</text><text fill="gray" font-family="Arial" font-size="10px" text-anchor="middle" x="250" y="90">Decouper + percer, puis plier aux lignes rouges</text><rect fill="#e8e8d8" height="73" stroke="black" stroke-width="1.5" width="138" x="100" y="120" /><text fill="#777" font-family="Arial" font-size="8px" text-anchor="middle" x="169.0" y="159.5">COTE (raidisseur)</text><text fill="#999" font-family="Arial" font-size="7px" text-anchor="middle" x="169.0" y="170.5">138x73mm</text><line stroke="#e00" stroke-dasharray="8,4" stroke-width="1.5" x1="100" x2="238" y1="193" y2="193" /><text fill="#e00" font-family="Arial" font-size="8px" text-anchor="end" x="95" y="196">pliage 2</text><rect fill="#d0d8e8" height="185" stroke="black" stroke-width="1.5" width="138" x="100" y="193" /><text fill="#555" font-family="Arial" font-size="8px" text-anchor="middle" x="169.0" y="208">PLAT (perpendiculaire)</text><text fill="#999" font-family="Arial" font-size="7px" text-anchor="middle" x="169.0" y="220">138x185mm</text><circle cx="198.0" cy="332" fill="white" r="9.0" stroke="red" stroke-width="2" /><text fill="red" font-family="Arial" font-size="9px" font-weight="bold" text-anchor="middle" x="198.0" y="317.0">A</text><text fill="red" font-family="Arial" font-size="7px" text-anchor="start" x="210.0" y="335">D18</text><circle cx="140.0" cy="217" fill="white" r="9.0" stroke="blue" stroke-width="2" /><text fill="blue" font-family="Arial" font-size="9px" font-weight="bold" text-anchor="middle" x="140.0" y="202.0">B</text><text fill="blue" font-family="Arial" font-size="7px" text-anchor="start" x="152.0" y="220">D18</text><text fill="red" font-family="Arial" font-size="6px" text-anchor="end" x="173.0" y="335">boulon vers
le HAUT</text><text fill="blue" font-family="Arial" font-size="6px" text-anchor="end" x="115.0" y="220">boulon vers
le BAS</text><line stroke="#e00" stroke-dasharray="8,4" stroke-width="1.5" x1="100" x2="238" y1="378" y2="378" /><text fill="#e00" font-family="Arial" font-size="8px" text-anchor="end" x="95" y="381">pliage 1</text><rect fill="#d8d8d8" height="150" stroke="black" stroke-width="1.5" width="138" x="100" y="378" /><text fill="#555" font-family="Arial" font-size="8px" text-anchor="middle" x="169.0" y="448.0">FOND (contre mur)</text><text fill="#999" font-family="Arial" font-size="7px" text-anchor="middle" x="169.0" y="460.0">138x150mm</text><circle cx="139.0" cy="413.0" fill="#555" r="5" stroke="black" stroke-width="1" /><circle cx="139.0" cy="453.0" fill="#555" r="5" stroke="black" stroke-width="1" /><circle cx="139.0" cy="493.0" fill="#555" r="5" stroke="black" stroke-width="1" /><circle cx="199.0" cy="413.0" fill="#555" r="5" stroke="black" stroke-width="1" /><circle cx="199.0" cy="453.0" fill="#555" r="5" stroke="black" stroke-width="1" /><circle cx="199.0" cy="493.0" fill="#555" r="5" stroke="black" stroke-width="1" /><line stroke="#333" stroke-width="0.5" x1="100" x2="238" y1="100" y2="100" /><line stroke="#333" stroke-width="0.3" x1="100" x2="100" y1="88" y2="105" /><line stroke="#333" stroke-width="0.3" x1="238" x2="238" y1="88" y2="105" /><line stroke="#333" stroke-width="0.5" x1="100" x2="103" y1="100" y2="98" /><line stroke="#333" stroke-width="0.5" x1="100" x2="103" y1="100" y2="102" /><line stroke="#333" stroke-width="0.5" x1="238" x2="235" y1="100" y2="98" /><line stroke="#333" stroke-width="0.5" x1="238" x2="235" y1="100" y2="102" /><text fill="#333" font-family="Arial" font-size="9px" text-anchor="middle" x="169.0" y="97">138mm</text><line stroke="#333" stroke-width="0.5" x1="253" x2="253" y1="120" y2="193" /><line stroke="#333" stroke-width="0.3" x1="248" x2="263" y1="120" y2="120" /><line stroke="#333" stroke-width="0.3" x1="248" x2="263" y1="193" y2="193" /><line stroke="#333" stroke-width="0.5" x1="253" x2="251" y1="120" y2="123" /><line stroke="#333" stroke-width="0.5" x1="253" x2="255" y1="120" y2="123" /><line stroke="#333" stroke-width="0.5" x1="253" x2="251" y1="193" y2="190" /><line stroke="#333" stroke-width="0.5" x1="253" x2="255" y1="193" y2="190" /><text fill="#333" font-family="Arial" font-size="9px" x="265" y="159.5">73mm</text><line stroke="#333" stroke-width="0.5" x1="253" x2="253" y1="193" y2="378" /><line stroke="#333" stroke-width="0.3" x1="248" x2="263" y1="193" y2="193" /><line stroke="#333" stroke-width="0.3" x1="248" x2="263" y1="378" y2="378" /><line stroke="#333" stroke-width="0.5" x1="253" x2="251" y1="193" y2="196" /><line stroke="#333" stroke-width="0.5" x1="253" x2="255" y1="193" y2="196" /><line stroke="#333" stroke-width="0.5" x1="253" x2="251" y1="378" y2="375" /><line stroke="#333" stroke-width="0.5" x1="253" x2="255" y1="378" y2="375" /><text fill="#333" font-family="Arial" font-size="9px" x="265" y="288.5">185mm</text><line stroke="#333" stroke-width="0.5" x1="253" x2="253" y1="378" y2="528" /><line stroke="#333" stroke-width="0.3" x1="248" x2="263" y1="378" y2="378" /><line stroke="#333" stroke-width="0.3" x1="248" x2="263" y1="528" y2="528" /><line stroke="#333" stroke-width="0.5" x1="253" x2="251" y1="378" y2="381" /><line stroke="#333" stroke-width="0.5" x1="253" x2="255" y1="378" y2="381" /><line stroke="#333" stroke-width="0.5" x1="253" x2="251" y1="528" y2="525" /><line stroke="#333" stroke-width="0.5" x1="253" x2="255" y1="528" y2="525" /><text fill="#333" font-family="Arial" font-size="9px" x="265" y="456.0">150mm</text><line stroke="#333" stroke-width="0.5" x1="293" x2="293" y1="120" y2="528" /><line stroke="#333" stroke-width="0.3" x1="288" x2="303" y1="120" y2="120" /><line stroke="#333" stroke-width="0.3" x1="288" x2="303" y1="528" y2="528" /><line stroke="#333" stroke-width="0.5" x1="293" x2="291" y1="120" y2="123" /><line stroke="#333" stroke-width="0.5" x1="293" x2="295" y1="120" y2="123" /><line stroke="#333" stroke-width="0.5" x1="293" x2="291" y1="528" y2="525" /><line stroke="#333" stroke-width="0.5" x1="293" x2="295" y1="528" y2="525" /><text fill="#333" font-family="Arial" font-size="9px" x="305" y="327.0">408mm (total)</text><line stroke="#333" stroke-width="0.5" x1="85" x2="85" y1="378" y2="332" /><line stroke="#333" stroke-width="0.3" x1="80" x2="70" y1="378" y2="378" /><line stroke="#333" stroke-width="0.3" x1="80" x2="70" y1="332" y2="332" /><line stroke="#333" stroke-width="0.5" x1="85" x2="83" y1="378" y2="381" /><line stroke="#333" stroke-width="0.5" x1="85" x2="87" y1="378" y2="381" /><line stroke="#333" stroke-width="0.5" x1="85" x2="83" y1="332" y2="329" /><line stroke="#333" stroke-width="0.5" x1="85" x2="87" y1="332" y2="329" /><text fill="#333" font-family="Arial" font-size="9px" x="72" y="358.0">46mm</text><line stroke="#333" stroke-width="0.5" x1="55" x2="55" y1="378" y2="217" /><line stroke="#333" stroke-width="0.3" x1="50" x2="40" y1="378" y2="378" /><line stroke="#333" stroke-width="0.3" x1="50" x2="40" y1="217" y2="217" /><line stroke="#333" stroke-width="0.5" x1="55" x2="53" y1="378" y2="381" /><line stroke="#333" stroke-width="0.5" x1="55" x2="57" y1="378" y2="381" /><line stroke="#333" stroke-width="0.5" x1="55" x2="53" y1="217" y2="214" /><line stroke="#333" stroke-width="0.5" x1="55" x2="57" y1="217" y2="214" /><text fill="#333" font-family="Arial" font-size="9px" x="42" y="300.5">161mm</text><line stroke="#333" stroke-width="0.5" x1="140.0" x2="198.0" y1="188" y2="188" /><line stroke="#333" stroke-width="0.3" x1="140.0" x2="140.0" y1="180" y2="193" /><line stroke="#333" stroke-width="0.3" x1="198.0" x2="198.0" y1="180" y2="193" /><line stroke="#333" stroke-width="0.5" x1="140.0" x2="143.0" y1="188" y2="186" /><line stroke="#333" stroke-width="0.5" x1="140.0" x2="143.0" y1="188" y2="190" /><line stroke="#333" stroke-width="0.5" x1="198.0" x2="195.0" y1="188" y2="186" /><line stroke="#333" stroke-width="0.5" x1="198.0" x2="195.0" y1="188" y2="190" /><text fill="#333" font-family="Arial" font-size="9px" text-anchor="middle" x="169.0" y="185">58mm</text><text fill="#555" font-family="Arial" font-size="8px" text-anchor="middle" x="169.0" y="548">6x chevilles chimiques M12</text><text font-family="Arial" font-size="12px" font-weight="bold" text-anchor="middle" x="750" y="75">2. PROFIL PLIE (vue de cote)</text><text fill="gray" font-family="Arial" font-size="10px" text-anchor="middle" x="750" y="90">Piece apres pliage, vue depuis le cote</text><rect fill="#e8e8e8" height="90.0" stroke="#bbb" stroke-width="1" width="40" x="580" y="560.0" /><text fill="#999" font-family="Arial" font-size="7px" text-anchor="middle" x="600" y="608.0">MUR</text><rect fill="#b0b0b0" height="90.0" stroke="black" stroke-width="2" width="3.0" x="620" y="560.0" /><text fill="#555" font-family="Arial" font-size="7px" text-anchor="start" x="631.0" y="608.0">FOND</text><rect fill="#a0a8b8" height="3.0" stroke="black" stroke-width="2" width="111.0" x="623.0" y="560.0" /><circle cx="650.6" cy="561.5" fill="white" r="3" stroke="red" stroke-width="1.5" /><text fill="red" font-family="Arial" font-size="8px" font-weight="bold" text-anchor="middle" x="650.6" y="552.0">A</text><circle cx="719.6" cy="561.5" fill="white" r="3" stroke="blue" stroke-width="1.5" /><text fill="blue" font-family="Arial" font-size="8px" font-weight="bold" text-anchor="middle" x="719.6" y="552.0">B</text><rect fill="#c8c8b8" height="43.8" stroke="black" stroke-width="2" width="3.0" x="731.0" y="563.0" /><text fill="#555" font-family="Arial" font-size="7px" text-anchor="start" x="742.0" y="587.9">COTE</text><line stroke="#c00" stroke-dasharray="3,3" stroke-width="1" x1="732.5" x2="621.5" y1="606.8" y2="650" /><text fill="#c00" font-family="Arial" font-size="7px" text-anchor="middle" x="676.25" y="621.8">1 soudure
(cote -&gt; fond)</text><text fill="#e00" font-family="Arial" font-size="7px" text-anchor="middle" x="621.5" y="545.0">pliage 1</text><text fill="#e00" font-family="Arial" font-size="7px" text-anchor="middle" x="731.0" y="545.0">pliage 2</text><line stroke="#333" stroke-width="0.5" x1="623.0" x2="734.0" y1="578.0" y2="578.0" /><line stroke="#333" stroke-width="0.3" x1="623.0" x2="623.0" y1="570.0" y2="583.0" /><line stroke="#333" stroke-width="0.3" x1="734.0" x2="734.0" y1="570.0" y2="583.0" /><line stroke="#333" stroke-width="0.5" x1="623.0" x2="626.0" y1="578.0" y2="576.0" /><line stroke="#333" stroke-width="0.5" x1="623.0" x2="626.0" y1="578.0" y2="580.0" /><line stroke="#333" stroke-width="0.5" x1="734.0" x2="731.0" y1="578.0" y2="576.0" /><line stroke="#333" stroke-width="0.5" x1="734.0" x2="731.0" y1="578.0" y2="580.0" /><text fill="#333" font-family="Arial" font-size="9px" text-anchor="middle" x="678.5" y="575.0">185mm</text><line stroke="#333" stroke-width="0.5" x1="610" x2="610" y1="560.0" y2="650" /><line stroke="#333" stroke-width="0.3" x1="605" x2="600" y1="560.0" y2="560.0" /><line stroke="#333" stroke-width="0.3" x1="605" x2="600" y1="650" y2="650" /><line stroke="#333" stroke-width="0.5" x1="610" x2="608" y1="560.0" y2="563.0" /><line stroke="#333" stroke-width="0.5" x1="610" x2="612" y1="560.0" y2="563.0" /><line stroke="#333" stroke-width="0.5" x1="610" x2="608" y1="650" y2="647" /><line stroke="#333" stroke-width="0.5" x1="610" x2="612" y1="650" y2="647" /><text fill="#333" font-family="Arial" font-size="9px" x="602" y="608.0">150mm</text><line stroke="#333" stroke-width="0.5" x1="759.0" x2="759.0" y1="563.0" y2="606.8" /><line stroke="#333" stroke-width="0.3" x1="754.0" x2="769.0" y1="563.0" y2="563.0" /><line stroke="#333" stroke-width="0.3" x1="754.0" x2="769.0" y1="606.8" y2="606.8" /><line stroke="#333" stroke-width="0.5" x1="759.0" x2="757.0" y1="563.0" y2="566.0" /><line stroke="#333" stroke-width="0.5" x1="759.0" x2="761.0" y1="563.0" y2="566.0" /><line stroke="#333" stroke-width="0.5" x1="759.0" x2="757.0" y1="606.8" y2="603.8" /><line stroke="#333" stroke-width="0.5" x1="759.0" x2="761.0" y1="606.8" y2="603.8" /><text fill="#333" font-family="Arial" font-size="9px" x="771.0" y="587.9">73mm</text><text fill="#555" font-family="Arial" font-size="9px" text-anchor="middle" x="550.0" y="805">Tole S235 ep.5mm | 2 pliages 90 deg | 1 soudure (bout cote sur fond)</text><text fill="#555" font-family="Arial" font-size="9px" text-anchor="middle" x="550.0" y="820">Pivot A: boulon D16mm vers le HAUT (bras au-dessus du plat) | Pivot B: boulon D16mm vers le BAS (bras en-dessous)</text><text fill="#555" font-family="Arial" font-size="9px" text-anchor="middle" x="550.0" y="835">Fixation mur: 6x chevilles chimiques M12 dans le fond</text></svg>